<svg xmlns="http://www.w3.org/2000/svg" width="250" height="113" viewBox="0 0 250 113" enable-background="new 0 0 250 113">
	<title>LOVATA-logo-250×113-inverse-nopadding-R</title>
	<rect width="250" height="113"/>
	<polygon fill="#ffffff" points="171.1,47.9 182,47.9 182,77.6 195.6,77.6 195.6,47.9 206.4,47.9 206.4,35.4 171.1,35.4"/>
	<polygon fill="#ffffff" points="13.6,35.4 0,35.4 0,77.6 24.5,77.6 24.5,65.1 13.6,65.1"/>
	<path fill="#ffffff" d="M57,34.3c-13.7,0-19.8,8.1-19.9,22.3c0.1,14.2,6.2,22.3,19.9,22.3s19.8-8.1,19.9-22.3 C76.8,42.3,70.8,34.3,57,34.3z M57,66.9c-4.8,0-6.4-3.5-6.4-10.4s1.6-10.4,6.4-10.4s6.4,3.5,6.4,10.4C63.4,63.4,61.9,66.9,57,66.9z"/>
	<polygon fill="#ffffff" points="105.9,48.9 100,35.4 86.7,35.4 105.9,79.4 125.1,35.4 111.8,35.4"/>
	<polygon fill="#ffffff" points="139.8,48.9 144.5,59.6 135.1,59.6 129.6,72.2 150,72.2 152.4,77.6 165.7,77.6 146.5,33.6"/>
	<polygon fill="#ffffff" points="230.8,33.6 224.1,48.9 228.8,59.6 219.4,59.6 213.9,72.2 234.3,72.2 236.7,77.6 250,77.6"/>
	<path fill="#ffffff" d="M246,39.2h0.5l0.7,1.5h0.8l-0.8-1.6c0.4-0.1,0.7-0.6,0.7-1c0-0.6-0.5-1.1-1.1-1.1c0,0-0.1,0-0.1,0h-1.4v3.7 h0.7V39.2z M246,37.6h0.7c0.2,0,0.5,0.1,0.5,0.4c0,0,0,0.1,0,0.1c0,0.3-0.2,0.5-0.4,0.5c0,0,0,0-0.1,0H246V37.6z"/>
	<path fill="#ffffff" d="M246.4,42.3c1.9,0,3.4-1.5,3.4-3.4c0-1.9-1.5-3.5-3.4-3.5c-1.9,0-3.4,1.5-3.4,3.4v0 C243,40.7,244.5,42.3,246.4,42.3z M246.4,35.8c1.7,0,3,1.3,3,3s-1.3,3-3,3s-3-1.3-3-3S244.8,35.8,246.4,35.8z"/>
</svg>
