<svg xmlns="http://www.w3.org/2000/svg" width="250" height="250" viewBox="0 0 250 250" enable-background="new 0 0 250 250">
	<title>LOVATA-logo-250×250-transparent-R</title>
	<polygon points="161.1,118.2 169.5,118.2 169.5,141.5 180.2,141.5 180.2,118.2 188.6,118.2 188.6,108.5 161.1,108.5"/>
	<polygon points="37.9,108.5 27.3,108.5 27.3,141.5 46.4,141.5 46.4,131.8 37.9,131.8"/>
	<path d="M71.8,107.6c-10.7,0-15.5,6.3-15.6,17.4c0.1,11.1,4.8,17.4,15.6,17.4s15.5-6.3,15.6-17.4C87.3,113.9,82.6,107.6,71.8,107.6z M71.8,133.1c-3.8,0-5-2.7-5-8.1s1.2-8.1,5-8.1s5,2.7,5,8.1C76.8,130.4,75.6,133.1,71.8,133.1z"/>
	<polygon points="110.1,119.1 105.5,108.5 95,108.5 110.1,142.9 125.1,108.5 114.7,108.5"/>
	<polygon points="136.5,119 140.2,127.4 132.9,127.4 128.6,137.2 144.5,137.2 146.4,141.5 156.8,141.5 141.8,107.1"/>
	<polygon points="207.7,107.1 202.5,119 206.2,127.4 198.8,127.4 194.5,137.2 210.5,137.2 212.3,141.5 222.7,141.5"/>
	<path d="M219.6,111.5h0.4l0.6,1.1h0.6l-0.6-1.2c0.3-0.1,0.5-0.4,0.5-0.8c0-0.5-0.4-0.9-0.8-0.9c0,0-0.1,0-0.1,0h-1.1v2.9h0.5V111.5z M219.6,110.3h0.5c0.2,0,0.4,0.1,0.4,0.3c0,0,0,0.1,0,0.1c0,0.2-0.1,0.4-0.3,0.4c0,0,0,0-0.1,0h-0.5V110.3z"/>
	<path d="M219.9,113.9c1.5,0,2.7-1.2,2.7-2.7c0-1.5-1.2-2.7-2.7-2.7c-1.5,0-2.7,1.2-2.7,2.7l0,0 C217.2,112.7,218.4,113.9,219.9,113.9z M219.9,108.8c1.3,0,2.3,1.1,2.3,2.3c0,1.3-1.1,2.3-2.3,2.3s-2.3-1.1-2.3-2.3 C217.6,109.9,218.6,108.8,219.9,108.8z"/>
</svg>
