<svg xmlns="http://www.w3.org/2000/svg" width="250" height="88" viewBox="0 0 250 88" enable-background="new 0 0 250 88">
	<title>LOVATA-logo-250×88-default</title>
	<rect fill="#ffffff" width="250" height="88"/>
	<polygon points="161.1,37.2 169.5,37.2 169.5,60.5 180.2,60.5 180.2,37.2 188.6,37.2 188.6,27.5 161.1,27.5"/>
	<polygon points="38,27.5 27.3,27.5 27.3,60.5 46.4,60.5 46.4,50.8 38,50.8"/>
	<path d="M71.8,26.6c-10.7,0-15.5,6.3-15.6,17.4c0.1,11.1,4.8,17.4,15.6,17.4S87.3,55.1,87.4,44C87.3,32.9,82.6,26.6,71.8,26.6z M71.8,52.1c-3.8,0-5-2.7-5-8.1s1.2-8.1,5-8.1s5,2.7,5,8.1C76.9,49.4,75.7,52.1,71.8,52.1z"/>
	<polygon points="110.1,38.1 105.5,27.5 95.1,27.5 110.1,61.9 125.1,27.5 114.7,27.5"/>
	<polygon points="136.5,38 140.2,46.4 132.9,46.4 128.6,56.2 144.5,56.2 146.4,60.5 156.8,60.5 141.8,26.1"/>
	<polygon points="207.7,26.1 202.5,38 206.1,46.4 198.8,46.4 194.5,56.2 210.4,56.2 212.3,60.5 222.7,60.5"/>
</svg>
