<svg xmlns="http://www.w3.org/2000/svg" width="250" height="250" viewBox="0 0 250 250">
	<title>LOVATA-logo-250×250-transparent-R</title>
	<rect fill="none" width="250" height="250"/>
	<g>
		<polygon points="162.8,117.9 171.6,117.9 171.6,142.2 182.7,142.2 182.7,117.9 191.5,117.9 191.5,107.8 162.8,107.8"/>
		<polygon points="34.3,107.8 23.1,107.8 23.1,142.2 43.1,142.2 43.1,132.1 34.3,132.1"/>
		<path d="M69.6,106.8c-11.2,0-16.2,6.6-16.3,18.2c0.1,11.6,5,18.2,16.3,18.2s16.2-6.6,16.3-18.2C85.7,113.4,80.8,106.8,69.6,106.8z
			M69.6,133.5c-4,0-5.2-2.8-5.2-8.5c0-5.6,1.3-8.5,5.2-8.5c4,0,5.2,2.8,5.2,8.5C74.9,130.6,73.6,133.5,69.6,133.5z"/>
		<polygon points="109.6,118.8 104.7,107.8 93.9,107.8 109.6,143.7 125.2,107.8 114.4,107.8"/>
		<polygon points="137.1,118.7 141,127.5 133.4,127.5 128.9,137.7 145.5,137.7 147.4,142.2 158.3,142.2 142.6,106.3"/>
		<polygon points="211.4,106.3 206,118.7 209.8,127.5 202.1,127.5 197.7,137.7 214.3,137.7 216.2,142.2 227.1,142.2"/>
		<path d="M223.9,110.9h0.4l0.6,1.1h0.6l-0.6-1.3c0.3-0.1,0.5-0.4,0.5-0.8c0-0.5-0.4-0.9-0.8-0.9h-0.1h-1.3v3h0.5v-1.1H223.9z
			M223.9,109.7h0.5c0.2,0,0.4,0.1,0.4,0.3v0.1c0,0.2-0.1,0.4-0.3,0.4c0,0,0,0-0.1,0h-0.5L223.9,109.7L223.9,109.7z"/>
		<path d="M224.2,113.4c1.6,0,2.8-1.3,2.8-2.8c0-1.6-1.3-2.8-2.8-2.8s-2.8,1.3-2.8,2.8l0,0C221.4,112.2,222.6,113.4,224.2,113.4z
			M224.2,108.1c1.4,0,2.4,1,2.4,2.4s-1,2.4-2.4,2.4s-2.4-1-2.4-2.4C221.8,109.2,222.8,108.1,224.2,108.1z"/>
	</g>
</svg>
