<svg xmlns="http://www.w3.org/2000/svg" width="250" height="250" viewBox="0 0 250 250">
	<title>LOVATA-logo-250×250-inverse</title>
	<rect width="250" height="250"/>
	<g>
		<polygon fill="#ffffff" points="162.8,117.9 171.6,117.9 171.6,142.2 182.7,142.2 182.7,117.9 191.5,117.9 191.5,107.8 162.8,107.8"/>
		<polygon fill="#ffffff" points="34.3,107.8 23.1,107.8 23.1,142.2 43.1,142.2 43.1,132.1 34.3,132.1"/>
		<path fill="#ffffff" d="M69.6,106.8c-11.2,0-16.2,6.6-16.3,18.2c0.1,11.6,5,18.2,16.3,18.2s16.2-6.6,16.3-18.2
			C85.7,113.4,80.8,106.8,69.6,106.8z M69.6,133.5c-4,0-5.2-2.8-5.2-8.5c0-5.6,1.3-8.5,5.2-8.5c4,0,5.2,2.8,5.2,8.5
			C74.9,130.6,73.6,133.5,69.6,133.5z"/>
		<polygon fill="#ffffff" points="109.6,118.8 104.7,107.8 93.9,107.8 109.6,143.7 125.2,107.8 114.4,107.8"/>
		<polygon fill="#ffffff" points="137.1,118.7 141,127.5 133.4,127.5 128.9,137.7 145.5,137.7 147.4,142.2 158.3,142.2 142.6,106.3"/>
		<polygon fill="#ffffff" points="211.4,106.3 206,118.7 209.8,127.5 202.1,127.5 197.7,137.7 214.3,137.7 216.2,142.2 227.1,142.2"/>
	</g>
</svg>
