<svg xmlns="http://www.w3.org/2000/svg" width="250" height="87" viewBox="0 0 250 87">
	<title>LOVATA-logo-email-signature</title>
	<rect fill="#ffffff" width="250" height="87"/>
	<g>
		<polygon points="154.4,35.9 164.2,35.9 164.2,62.7 176.5,62.7 176.5,35.9 186.2,35.9 186.2,24.6 154.4,24.6"/>
		<polygon points="12.5,24.6 0.1,24.6 0.1,62.7 22.2,62.7 22.2,51.4 12.5,51.4"/>
		<path d="M51.5,23.5c-12.3,0-17.9,7.3-18,20.1c0.1,12.8,5.5,20.1,18,20.1s17.9-7.3,18-20.1C69.4,30.9,63.9,23.5,51.5,23.5z M51.5,53
			c-4.4,0-5.8-3.1-5.8-9.4s1.5-9.4,5.8-9.4s5.8,3.1,5.8,9.4C57.3,49.8,55.9,53,51.5,53z"/>
		<polygon points="95.6,36.8 90.3,24.6 78.3,24.6 95.6,64.2 113,24.6 101,24.6"/>
		<polygon points="126.2,36.7 130.4,46.5 121.9,46.5 117,57.8 135.4,57.8 137.5,62.7 149.5,62.7 132.2,23"/>
		<polygon points="208.2,23 202.2,36.7 206.5,46.5 197.9,46.5 193,57.8 211.4,57.8 213.5,62.7 225.5,62.7"/>
		<path d="M222,28h0.4l0.6,1.4h0.7l-0.7-1.5c0.4-0.1,0.6-0.5,0.6-0.9c0-0.5-0.4-1-0.9-1h-0.1h-1.3v3.3h0.6L222,28L222,28z M222,26.6
			h0.6c0.2,0,0.4,0.1,0.4,0.3V27c0,0.2-0.2,0.4-0.4,0.4c0,0,0,0-0.1,0h-0.6v-0.8H222z"/>
		<path d="M222.3,30.8c1.7,0,3.1-1.4,3.1-3.1c0-1.7-1.4-3.1-3.1-3.1c-1.8,0-3.1,1.4-3.1,3.1l0,0C219.3,29.4,220.6,30.8,222.3,30.8z
			M222.3,25c1.5,0,2.7,1.3,2.7,2.7c0,1.5-1.3,2.7-2.7,2.7s-2.7-1.3-2.7-2.7C219.7,26.2,220.8,25,222.3,25z"/>
	</g>
</svg>
