<svg xmlns="http://www.w3.org/2000/svg" width="250" height="80" viewBox="0 0 250 80">
	<title>LOVATA-logo-250×80-default-R</title>
	<rect fill="#ffffff" width="250" height="80"/>
	<g>
		<polygon points="162.8,32.9 171.6,32.9 171.6,57.2 182.7,57.2 182.7,32.9 191.5,32.9 191.5,22.8 162.8,22.8"/>
		<polygon points="34.3,22.8 23.1,22.8 23.1,57.2 43.1,57.2 43.1,47.1 34.3,47.1"/>
		<path d="M69.6,21.8c-11.2,0-16.2,6.6-16.3,18.2c0.1,11.6,5,18.2,16.3,18.2S85.7,51.6,85.9,40C85.7,28.4,80.8,21.8,69.6,21.8z
			M69.6,48.5c-4,0-5.2-2.8-5.2-8.5s1.3-8.5,5.2-8.5c4,0,5.2,2.8,5.2,8.5C74.9,45.6,73.6,48.5,69.6,48.5z"/>
		<polygon points="109.6,33.8 104.7,22.8 93.9,22.8 109.6,58.7 125.2,22.8 114.4,22.8"/>
		<polygon points="137.1,33.7 141,42.5 133.4,42.5 128.9,52.7 145.5,52.7 147.4,57.2 158.3,57.2 142.6,21.3"/>
		<polygon points="211.4,21.3 206,33.7 209.8,42.5 202.1,42.5 197.7,52.7 214.3,52.7 216.2,57.2 227.1,57.2"/>
		<path d="M223.9,25.9h0.4l0.6,1.1h0.6l-0.6-1.3c0.3-0.1,0.5-0.4,0.5-0.8c0-0.5-0.4-0.9-0.8-0.9h-0.1h-1.3v3h0.5v-1.1H223.9z
			M223.9,24.7h0.5c0.2,0,0.4,0.1,0.4,0.3v0.1c0,0.2-0.1,0.4-0.3,0.4c0,0,0,0-0.1,0h-0.5L223.9,24.7L223.9,24.7z"/>
		<path d="M224.2,28.4c1.6,0,2.8-1.3,2.8-2.8s-1.3-2.8-2.8-2.8s-2.8,1.3-2.8,2.8l0,0C221.4,27.2,222.6,28.4,224.2,28.4z M224.2,23.1
			c1.4,0,2.4,1,2.4,2.4c0,1.4-1,2.4-2.4,2.4s-2.4-1-2.4-2.4C221.8,24.2,222.8,23.1,224.2,23.1z"/>
	</g>
</svg>
