<svg xmlns="http://www.w3.org/2000/svg" width="250" height="46" viewBox="0 0 250 46">
	<title>LOVATA-logo-250×46-transparent</title>
	<g>
		<polygon points="171.1,14.4 182,14.4 182,44.1 195.6,44.1 195.6,14.4 206.4,14.4 206.4,1.9 171.1,1.9"/>
		<polygon points="13.6,1.9 0,1.9 0,44.1 24.5,44.1 24.5,31.6 13.6,31.6"/>
		<path d="M57,0.8c-13.7,0-19.8,8.1-19.9,22.3c0.1,14.2,6.2,22.3,19.9,22.3s19.8-8.1,19.9-22.3C76.8,8.8,70.8,0.8,57,0.8z M57,33.4 c-4.8,0-6.4-3.5-6.4-10.4s1.6-10.4,6.4-10.4s6.4,3.5,6.4,10.4S61.9,33.4,57,33.4z"/>
		<polygon points="105.9,15.4 100,1.9 86.7,1.9 105.9,45.9 125.1,1.9 111.8,1.9"/>
		<polygon points="139.8,15.4 144.5,26.1 135.1,26.1 129.6,38.7 150,38.7 152.4,44.1 165.7,44.1 146.5,0.1"/>
		<polygon points="230.8,0.1 224.1,15.4 228.8,26.1 219.4,26.1 213.9,38.7 234.3,38.7 236.7,44.1 250,44.1"/>
	</g>
</svg>
