<svg xmlns="http://www.w3.org/2000/svg" width="250" height="88" viewBox="0 0 250 88" enable-background="new 0 0 250 88">
	<title>LOVATA-logo-250×88-inverse-R</title>
	<rect width="250" height="88"/>
	<polygon fill="#ffffff" points="161.1,37.2 169.5,37.2 169.5,60.5 180.2,60.5 180.2,37.2 188.6,37.2 188.6,27.5 161.1,27.5"/>
	<polygon fill="#ffffff" points="38,27.5 27.3,27.5 27.3,60.5 46.4,60.5 46.4,50.8 38,50.8"/>
	<path fill="#ffffff" d="M71.8,26.6c-10.7,0-15.5,6.3-15.6,17.4c0.1,11.1,4.8,17.4,15.6,17.4S87.3,55.1,87.4,44 C87.3,32.9,82.6,26.6,71.8,26.6z M71.8,52.1c-3.8,0-5-2.7-5-8.1s1.2-8.1,5-8.1s5,2.7,5,8.1C76.9,49.4,75.7,52.1,71.8,52.1z"/>
	<polygon fill="#ffffff" points="110.1,38.1 105.5,27.5 95.1,27.5 110.1,61.9 125.1,27.5 114.7,27.5"/>
	<polygon fill="#ffffff" points="136.5,38 140.2,46.4 132.9,46.4 128.6,56.2 144.5,56.2 146.4,60.5 156.8,60.5 141.8,26.1"/>
	<polygon fill="#ffffff" points="207.7,26.1 202.5,38 206.1,46.4 198.8,46.4 194.5,56.2 210.4,56.2 212.3,60.5 222.7,60.5"/>
	<path fill="#ffffff" d="M219.6,30.5h0.4l0.6,1.1h0.6l-0.6-1.2c0.3-0.1,0.5-0.4,0.5-0.8c0-0.5-0.4-0.9-0.8-0.9c0,0-0.1,0-0.1,0H219 v2.9h0.5V30.5z M219.6,29.3h0.5c0.2,0,0.4,0.1,0.4,0.3c0,0,0,0.1,0,0.1c0,0.2-0.1,0.4-0.3,0.4c0,0,0,0-0.1,0h-0.5V29.3z"/>
	<path fill="#ffffff" d="M219.9,32.9c1.5,0,2.7-1.2,2.7-2.7c0-1.5-1.2-2.7-2.7-2.7c-1.5,0-2.7,1.2-2.7,2.7v0 C217.2,31.7,218.4,32.9,219.9,32.9z M219.9,27.8c1.3,0,2.3,1,2.3,2.3c0,1.3-1,2.3-2.3,2.3c-1.3,0-2.3-1-2.3-2.3 C217.6,28.9,218.6,27.8,219.9,27.8z"/>
</svg>
