<svg xmlns="http://www.w3.org/2000/svg" width="250" height="46" viewBox="0 0 250 46">
	<title>LOVATA-logo-250×46-transparent-R</title>
	<g>
		<polygon points="171.1,14.4 182,14.4 182,44.1 195.6,44.1 195.6,14.4 206.4,14.4 206.4,1.9 171.1,1.9"/>
		<polygon points="13.6,1.9 0,1.9 0,44.1 24.5,44.1 24.5,31.6 13.6,31.6"/>
		<path d="M57,0.8c-13.7,0-19.8,8.1-19.9,22.3c0.1,14.2,6.2,22.3,19.9,22.3s19.8-8.1,19.9-22.3C76.8,8.8,70.8,0.8,57,0.8z M57,33.4 c-4.8,0-6.4-3.5-6.4-10.4s1.6-10.4,6.4-10.4s6.4,3.5,6.4,10.4S61.9,33.4,57,33.4z"/>
		<polygon points="105.9,15.4 100,1.9 86.7,1.9 105.9,45.9 125.1,1.9 111.8,1.9"/>
		<polygon points="139.8,15.4 144.5,26.1 135.1,26.1 129.6,38.7 150,38.7 152.4,44.1 165.7,44.1 146.5,0.1"/>
		<polygon points="230.8,0.1 224.1,15.4 228.8,26.1 219.4,26.1 213.9,38.7 234.3,38.7 236.7,44.1 250,44.1"/>
		<path d="M246,5.7h0.5l0.7,1.5h0.8l-0.8-1.6c0.4-0.1,0.7-0.6,0.7-1c0-0.6-0.5-1.1-1.1-1.1h-0.1h-1.4v3.7h0.7L246,5.7L246,5.7z M246,4.1h0.7c0.2,0,0.5,0.1,0.5,0.4v0.1c0,0.3-0.2,0.5-0.4,0.5c0,0,0,0-0.1,0H246V4.1z"/>
		<path d="M246.4,8.8c1.9,0,3.4-1.5,3.4-3.4s-1.5-3.5-3.4-3.5S243,3.4,243,5.3l0,0C243,7.2,244.5,8.8,246.4,8.8z M246.4,2.3 c1.7,0,3,1.3,3,3s-1.3,3-3,3s-3-1.3-3-3S244.8,2.3,246.4,2.3z"/>
	</g>
</svg>
