<svg xmlns="http://www.w3.org/2000/svg" width="250" height="113" viewBox="0 0 250 113" enable-background="new 0 0 250 113">
	<title>LOVATA-logo-250×113-transparent-nopadding</title>
	<polygon points="171.1,47.9 182,47.9 182,77.6 195.6,77.6 195.6,47.9 206.4,47.9 206.4,35.4 171.1,35.4"/>
	<polygon points="13.6,35.4 0,35.4 0,77.6 24.5,77.6 24.5,65.1 13.6,65.1"/>
	<path d="M57,34.3c-13.7,0-19.8,8.1-19.9,22.3c0.1,14.2,6.2,22.3,19.9,22.3s19.8-8.1,19.9-22.3C76.8,42.3,70.8,34.3,57,34.3z M57,66.9c-4.8,0-6.4-3.5-6.4-10.4s1.6-10.4,6.4-10.4s6.4,3.5,6.4,10.4C63.4,63.4,61.9,66.9,57,66.9z"/>
	<polygon points="105.9,48.9 100,35.4 86.7,35.4 105.9,79.4 125.1,35.4 111.8,35.4"/>
	<polygon points="139.8,48.9 144.5,59.6 135.1,59.6 129.6,72.2 150,72.2 152.4,77.6 165.7,77.6 146.5,33.6"/>
	<polygon points="230.8,33.6 224.1,48.9 228.8,59.6 219.4,59.6 213.9,72.2 234.3,72.2 236.7,77.6 250,77.6"/>
</svg>
