<svg xmlns="http://www.w3.org/2000/svg" width="250" height="250" viewBox="0 0 250 250" enable-background="new 0 0 250 250">
	<title>LOVATA-logo-250×250-inverse-nopadding-R</title>
	<rect width="250" height="250"/>
	<polygon fill="#ffffff" points="171.1,116.4 182,116.4 182,146.1 195.6,146.1 195.6,116.4 206.4,116.4 206.4,103.9 171.1,103.9"/>
	<polygon fill="#ffffff" points="13.6,103.9 0,103.9 0,146.1 24.5,146.1 24.5,133.6 13.6,133.6"/>
	<path fill="#ffffff" d="M57,102.8c-13.7,0-19.8,8.1-19.9,22.3c0.1,14.2,6.2,22.3,19.9,22.3s19.8-8.1,19.9-22.3 C76.8,110.8,70.8,102.8,57,102.8z M57,135.4c-4.8,0-6.4-3.5-6.4-10.4s1.6-10.4,6.4-10.4s6.4,3.5,6.4,10.4 C63.4,131.9,61.9,135.4,57,135.4z"/>
	<polygon fill="#ffffff" points="105.9,117.4 100,103.9 86.7,103.9 105.9,147.9 125.1,103.9 111.8,103.9"/>
	<polygon fill="#ffffff" points="139.8,117.4 144.5,128.1 135.1,128.1 129.6,140.7 150,140.7 152.4,146.1 165.7,146.1 146.5,102.1"/>
	<polygon fill="#ffffff" points="230.8,102.1 224.1,117.4 228.8,128.1 219.4,128.1 213.9,140.7 234.3,140.7 236.7,146.1 250,146.1"/>
	<path fill="#ffffff" d="M246,107.7h0.5l0.7,1.5h0.8l-0.8-1.6c0.4-0.1,0.7-0.6,0.7-1c0-0.6-0.5-1.1-1.1-1.1c0,0-0.1,0-0.1,0h-1.4v3.7 h0.7V107.7z M246,106.1h0.7c0.2,0,0.5,0.1,0.5,0.4c0,0,0,0.1,0,0.1c0,0.3-0.2,0.5-0.4,0.5c0,0,0,0-0.1,0H246V106.1z"/>
	<path fill="#ffffff" d="M246.4,110.8c1.9,0,3.4-1.5,3.4-3.4c0-1.9-1.5-3.5-3.4-3.5c-1.9,0-3.4,1.5-3.4,3.4v0 C243,109.2,244.5,110.8,246.4,110.8z M246.4,104.3c1.7,0,3,1.3,3,3s-1.3,3-3,3s-3-1.3-3-3S244.8,104.3,246.4,104.3z"/>
</svg>
