<svg xmlns="http://www.w3.org/2000/svg" width="250" height="250" viewBox="0 0 250 250" enable-background="new 0 0 250 250">
	<title>LOVATA-logo-250×250-default-nopadding</title>
	<rect fill="#ffffff" width="250" height="250"/>
	<polygon points="171.1,116.4 182,116.4 182,146.1 195.6,146.1 195.6,116.4 206.4,116.4 206.4,103.9 171.1,103.9"/>
	<polygon points="13.6,103.9 0,103.9 0,146.1 24.5,146.1 24.5,133.6 13.6,133.6"/>
	<path d="M57,102.8c-13.7,0-19.8,8.1-19.9,22.3c0.1,14.2,6.2,22.3,19.9,22.3s19.8-8.1,19.9-22.3C76.8,110.8,70.8,102.8,57,102.8z M57,135.4c-4.8,0-6.4-3.5-6.4-10.4s1.6-10.4,6.4-10.4s6.4,3.5,6.4,10.4C63.4,131.9,61.9,135.4,57,135.4z"/>
	<polygon points="105.9,117.4 100,103.9 86.7,103.9 105.9,147.9 125.1,103.9 111.8,103.9"/>
	<polygon points="139.8,117.4 144.5,128.1 135.1,128.1 129.6,140.7 150,140.7 152.4,146.1 165.7,146.1 146.5,102.1"/>
	<polygon points="230.8,102.1 224.1,117.4 228.8,128.1 219.4,128.1 213.9,140.7 234.3,140.7 236.7,146.1 250,146.1"/>
</svg>
